<svg id="b3b37e1b-b680-4341-92f2-5f96f51da6eb" data-name="Layer 1" xmlns="http://www.w3.org/2000/svg" xmlns:xlink="http://www.w3.org/1999/xlink" width="766.98" height="381.84" viewBox="0 0 766.98 381.84"><defs><linearGradient id="b7064239-48a7-4171-bfd6-69a06ddea3ab" x1="1602.16" y1="65.68" x2="1684.25" y2="136.21" gradientTransform="matrix(0.41, 0, 0, -0.41, 97.59, 199.65)" gradientUnits="userSpaceOnUse"><stop offset="0" stop-color="#748b95"/><stop offset="1" stop-color="#6597be"/></linearGradient></defs><path d="M376.33,189.38c-22-21.86-45.86-18.72-74-18.38l-47.27.17H135.59c-20.94,0-42.58-.28-63.43.14a83.64,83.64,0,0,0,2,11.53,166.36,166.36,0,0,0,60.75,94c6,4.61,12.62,8.56,19.06,12.57,6.29,3.86,21.71,10.73,28.59,12.87.46-.12,8.13,2.77,9.21,3.09,32.63,10,68.35,13.34,102.39,12.89q12.6-.21,25.18-.72c23.35-.9,41.61-3.57,58.66-21.36C405.22,267.76,404.13,217,376.33,189.38Zm-201,79.07a109.86,109.86,0,0,1-14.22-8c-25.44-16.19-39.31-35-51.88-61.63,32.07-.49,64.33.33,96.43-.05,11.63-.14,23.57-.05,35.19.31-3.43,4.74-7.68,8-11.24,12.29-6.91,8.32-14.35,15.54-21.78,23.35C197.45,246.19,185.78,257,175.32,268.45Zm49.1,16.35a172.77,172.77,0,0,1-20.24-5.25Q234,247.61,264.76,216.5c.05,1.06-2.26,6.54-2.66,8.12-5.61,22.13-1.44,47,11.7,65.27C255.88,289.15,241.84,288.2,224.42,284.8Zm110,3.73c-59.54,5.94-60-84.15-11.1-89.6C377.54,191.82,387.34,280.07,334.45,288.53Z" transform="translate(-28.01 -64.38)" fill="#6a98ba"/><path d="M266.74,386.75c14-9.19,28-24.82,42.71-33.37,3.7-2.15,16.94-1.83,21.89-2.11a108.86,108.86,0,0,0,48-14.21,106.51,106.51,0,0,0,54.12-97.39c-.58-14.65-4.67-28.83-3.08-42.66a97.58,97.58,0,0,1,7-26.87c4.15-9.76,7.54-15,10.52-25.83,2,3.84,2.73,6.45,6.1,9.53,5.16,4.71,12.81,4.79,19.47,4.44-6.78,14.32-17.7,34.71-15.31,50.07,1.44,9.27,2.83,17.77,3.47,27.15C466.25,302.24,421.77,360,357.26,376c-12.14,3-25.13,3.24-37.6,3.84-4.45,3-11.77,9.23-16.11,12.74q-21.63,17.74-42.87,36c-6.41,5.44-14.5,12.86-21.24,17.66-.85-24.91-.17-52.79-.13-77.92-19.28-6.17-54.3-21.13-69.93-33.37,6.87-6.74,13-13.29,19.65-20.12,17.57,10.08,32.34,17.74,51.8,24.26,8.32,2.79,17.81,5.29,25.76,8.31C267.59,359.57,267,374.33,266.74,386.75Z" transform="translate(-28.01 -64.38)" fill="#6a98ba"/><path d="M550.2,88.12c.49.09,1,.19,1.47.31,5.18,1.27,14.5,5.28,19.74,7.23l22.45,8.6c4.2,1.62,9.46,3.34,13.31,5.59,1.21.7,3.09,4.06,3.89,5.4-3.52,10.5-22.09,54.21-22.38,61.67-3.89,1.06-6.5,25.42-18.32,22.05a165.62,165.62,0,0,1-16.52-5.89l-21.7-8.6c-3.53-1.38-13.27-4.46-15.73-6.71-2.53-1.64-3.18-4.3-4-7a45.28,45.28,0,0,1,2.06-6.68c2.2-7.47,7.59-19.59,10.57-27.41q5.36-14.21,11-28.32c1.82-4.56,3.66-9.34,5.78-13.75C543.75,90.56,546.12,89.44,550.2,88.12Z" transform="translate(-28.01 -64.38)" fill="#ed876f"/><path d="M553.62,121.28c6.07,1.59,23.25,7.9,27.65,11.51,4.84,4-7.07,29.11-11.27,32.85-5.51-.31-23.65-7.72-28.83-11.43-1.13-.81-1-5.38-.51-6.85C543.66,139,545.73,126.37,553.62,121.28Z" transform="translate(-28.01 -64.38)" fill="#f7f6ee"/><path d="M554.05,127.09c3.41,1.13,6.07,2,9.36,3.46,4.33,1.26,10,3.63,14.28,5.3-2.45,7.17-6,17.06-8.91,24-7-2-17.31-5.25-23.74-8.66,1.07-2.78,2.18-5.56,3.3-8.32Q551.05,134.93,554.05,127.09Z" transform="translate(-28.01 -64.38)" fill="#ed876f"/><path d="M684.58,124.31l.17-.14c5.23-4.51,4.15-24.5,17-24,4.67.19,53.22,19.1,55.66,21.66,1.62,1.72,2.4,4.29,3,6.52-1.72,7-7.4,19.85-10.19,27.13q-6.68,17.46-13.7,34.78c-2.06,5.08-3.93,10.16-6.23,15.08-2.08,4.48-7.13,5.64-11.61,4-16.16-6-32.52-12.37-48.55-18.66-4.52-1.78-6.22-6.35-7.4-10.61.72-1.55,1.51-3.25,2.09-4.84C671,158.25,678.61,141.38,684.58,124.31Z" transform="translate(-28.01 -64.38)" fill="#6a98ba"/><path d="M717.13,136a4.85,4.85,0,0,1,2,.41c1.31,1.93,1.09,9.27,1.26,12.26,2.24,1.83,9,5.38,12.27,7.46-4.6,3.35-8.15,3.86-13.39,5.84-1.08,5.56-1,8.71-3.05,14.25A65.22,65.22,0,0,1,708.6,168l-1.11-1.25c-1.9-.94-11.23.25-14.33.33,2.21-5.07,4.62-8,6.74-12.55a83.82,83.82,0,0,1-5.16-12.77,65.12,65.12,0,0,1,12.92,2.72C710.94,142.24,714.09,138.82,717.13,136Z" transform="translate(-28.01 -64.38)" fill="#f7f6ee"/><path d="M611.06,115.25c3.2-9,6.16-24.8,19.08-19.69s26.33,9.9,39.46,14.87c8.48,3.32,14.87,3.66,15,13.88-6,17.07-13.57,33.94-19.79,50.94-.58,1.59-1.37,3.29-2.09,4.84-3.12,7.23-4.69,22.16-13.59,24-2.91.61-8.8-1.84-11.73-2.89-11.55-4.13-22.9-8.92-34.44-13.08-4.19-1.52-9-3.44-12.61-6a24.86,24.86,0,0,1-1.65-5.23C589,169.46,607.54,125.75,611.06,115.25Z" transform="translate(-28.01 -64.38)" fill="#7a5a3c"/><path d="M655.68,139.84c3.49-.09,3.65,2.49,4.6,5.41-3.62,3.47-28.9,16-34.09,17.57a74.34,74.34,0,0,1-5.31-10.5c-2.84-6.69-5.65-9.81,3-11.82a62.59,62.59,0,0,1,5.33,12.23C635,151,647.54,143.05,655.68,139.84Z" transform="translate(-28.01 -64.38)" fill="#f7f6ee"/><path d="M282.08,159.11c1.86-3,7.93-9.05,10.62-11.69,4.53-4.45,7.82-8.34,11.85-13,7.44-8.7,12-17.49,18.09-26.73a128.56,128.56,0,0,1,20.88-22.9c36.8-31.32,94-26.66,120.89,15.07,3,4.63,6.73,12.82,9.83,16.56l.13.16c-7.31.75-15.15,6.22-19.95,11.74-3.47,4-4.14,7.53-6.13,10.21C444.88,113.1,430,96.29,403.94,92.4c-22.32-3.35-43.9,11.6-56.38,29-8.08,11.27-16.54,28.76-27.6,37.13l-.39.29c-1.73.08-3.64.08-5.37,0C303.5,158.62,292.76,159.17,282.08,159.11Z" transform="translate(-28.01 -64.38)" fill="#6a98ba"/><path d="M153.93,289.43c6.29,3.86,21.71,10.73,28.59,12.87-9.22,11.41-25,27-35.33,38q-11.79,12.76-23.84,25.29C108.47,381.14,92.4,398,69.17,398.07c-14.1,0-29.65-5.74-41.16-13.65,4.41-2.62,8.9-6.7,13.14-9.71,6.47-4.61,12.86-9.37,19.3-14Q108.23,326.42,153.93,289.43Z" transform="translate(-28.01 -64.38)" fill="#7a5a3c"/><path d="M474.37,116.53c13.27,7.23,27.32,13.63,40.38,20.72-3.48,2.95-35.11,18.31-41.24,21-6.66.35-14.31.27-19.47-4.44-3.37-3.08-4.14-5.69-6.1-9.53l.35-5.83c2-2.68,2.66-6.22,6.13-10.21C459.22,122.75,467.06,117.28,474.37,116.53Z" transform="translate(-28.01 -64.38)" fill="#7a5a3c"/><path d="M403.33,118.82a13.85,13.85,0,1,1-9.22,17.09A13.87,13.87,0,0,1,403.33,118.82Z" transform="translate(-28.01 -64.38)" fill="#787d7f"/><path d="M694,66.21c6.86-.21,12.16,3.61,11.4,10.94a9.78,9.78,0,0,1-3.8,6.74,9.32,9.32,0,0,1-7.17,1.85c-4.25-.65-6.39-3.41-8.71-6.58-9.07,2.54-14.47,5.15-20.72,12.52-2.05,2.67-2.83,5.56-4.9,7.94-2,.88-3.64.55-4.48-1.57a7.6,7.6,0,0,1,1.08-3.78c8-13.86,15.12-16.1,29.12-20.4C687.5,69.69,689.67,67.48,694,66.21Z" transform="translate(-28.01 -64.38)" fill="#7a5a3c"/><path d="M763.53,77.71c7.37-.44,14.05,3.08,12.72,11.41a10.55,10.55,0,0,1-4.26,7,8.9,8.9,0,0,1-6.75,1.5c-4.31-.81-6.14-3.72-8.38-7a33.86,33.86,0,0,0-15,6.52c-3.06,2.7-6.42,8.94-10.77,7.64l-.5-1a7.72,7.72,0,0,1,1.37-4.4c6.42-9.1,14.13-11.73,24-14.22C758.86,82,759.55,79.92,763.53,77.71Z" transform="translate(-28.01 -64.38)" fill="#6a98ba"/><path d="M782.65,139.92c11.65-1.07,16.85,10.53,7.54,17.46-1.86,1.39-5.56,1.56-8,1.77-7.4,6.18-7.4,8.13-17.93,10.78-2.75.54-9,1.21-10.85-1.19-.08-5.85,4.78-3.42,9.34-4.39a23.25,23.25,0,0,0,13.48-7.95C775,148.09,774,143.54,782.65,139.92Z" transform="translate(-28.01 -64.38)" fill="url(#b7064239-48a7-4171-bfd6-69a06ddea3ab)"/><path d="M606.49,72.25c1.61-5.57,7.09-7.06,12.13-5.2a10.73,10.73,0,0,1,6.11,5.84c2.71,6.29-.71,10.76-6.62,13-5.72,2.18-10-2.26-12.79-6.66C605.84,77.12,606.16,74.44,606.49,72.25Z" transform="translate(-28.01 -64.38)" fill="#ed876f"/><path d="M606.49,72.25c-.33,2.19-.65,4.87-1.17,7-5,2.09-10.59,2.35-15,6.36-2.9,2.63-5.4,8.27-9.76,7.75-3.45-2.56,1.71-7.84,3.55-9.83,5.32-5.7,12.64-7.89,20-9.31C605.83,73.89,605.64,73.66,606.49,72.25Z" transform="translate(-28.01 -64.38)" fill="#d18877"/></svg>